<svg width="185" height="38" fill="none" xmlns="http://www.w3.org/2000/svg"><path d="M32.352 1.664h1.584c2.048 0 3.568-.24 4.56-.72-1.408 2.08-2.768 3.888-4.08 5.424h-.768a14.93 14.93 0 01-4.752-.768c-2.176 1.792-3.92 4.176-5.232 7.152 3.392.864 7.168 1.376 11.328 1.536.96 2.432 1.616 6.336 1.968 11.712H24.528c-.544-2.368-1.376-4.544-2.496-6.528-1.088-2.016-2.224-3.392-3.408-4.128-.224 2.624-.336 4.736-.336 6.336 0 1.6.048 3.04.144 4.32H7.872c-.608-4.704-.912-8.672-.912-11.904 0-3.264.24-7.296.72-12.096h13.344c-.96 3.968-1.616 7.296-1.968 9.984 1.44-2.368 2.944-4.352 4.512-5.952 1.6-1.632 3.488-3.008 5.664-4.128.832-.16 1.872-.24 3.12-.24zm43.63 4.32c0 6.272-.608 12.944-1.824 20.016H62.686c.512-3.776.848-7.84 1.008-12.192-1.664-1.024-3.52-1.648-5.568-1.872A104.417 104.417 0 0156.59 26H45.694c.416-3.136.624-6.88.624-11.232 0-4.384-.288-8.64-.864-12.768h12.672c.064 1.312.096 3.264.096 5.856a30.428 30.428 0 015.52 2.352c0-2.976-.112-5.712-.336-8.208h12.48c.064 1.792.096 3.12.096 3.984zm8.79 4.608c0-2.528.353-5.392 1.057-8.592h25.056c.448 3.392.672 7.088.672 11.088 0 3.968-.464 8.272-1.392 12.912H99.701c.192-2.24.288-4.176.288-5.808 0-1.664-.016-2.768-.048-3.312-2.72 1.152-4.416 4.192-5.088 9.12H82.469c.256-3.616.912-6.768 1.968-9.456 3.776-.16 7.088-.608 9.936-1.344-3.712-.768-6.912-1.84-9.6-3.216v-1.392zm14.16-5.376c-1.695 2.176-2.831 4.32-3.407 6.432 1.088.992 2.512 1.616 4.272 1.872-.192-2.72-.48-5.488-.864-8.304zm36.009.768l-.048-1.104c-.672-.192-1.84-.288-3.504-.288-1.632 0-2.752.096-3.36.288a24.75 24.75 0 00.816 3.216c-2.24-.064-4.304-.16-6.192-.288-.704-1.568-1.344-3.488-1.92-5.76A48.095 48.095 0 01131.197.896c7.456 0 11.184 1.168 11.184 3.504 0 .352-.112.784-.336 1.296-1.44 2.752-3.008 4.944-4.704 6.576 2.56.672 4.528 1.984 5.904 3.936 1.408 1.92 2.256 4.224 2.544 6.912-1.504 1.984-3.536 3.728-6.096 5.232-2.528 1.504-5.12 2.512-7.776 3.024-1.792-.16-4.064-.656-6.816-1.488-2.72-.832-4.784-1.248-6.192-1.248-1.376 0-2.752.432-4.128 1.296.704-1.92 1.664-3.968 2.88-6.144h.672c1.984 0 3.856.32 5.616.96 1.792.64 3.408 1.28 4.848 1.92 1.472.64 2.688.96 3.648.96s1.536-.112 1.728-.336c.224-.224.336-.912.336-2.064 0-1.184-.256-2.704-.768-4.56-1.184-3.776-2.448-5.696-3.792-5.76-1.76.48-2.912.72-3.456.72-.512 0-.816-.016-.912-.048.576-1.184 1.344-2.608 2.304-4.272h1.488c1.856 0 3.36.08 4.512.24a15.347 15.347 0 001.056-5.568zM153.516 26c-.768-3.2-1.152-7.2-1.152-12 0-4.832.464-8.832 1.392-12h11.808c-.512 2.976-.848 5.696-1.008 8.16 5.6.64 10.576 2.048 14.928 4.224-.096 4.288-.592 8.16-1.488 11.616h-24.48zm10.944-12.528c0 3.36.4 6.464 1.2 9.312 1.696-2.112 2.752-4.784 3.168-8.016-1.408-.736-2.864-1.168-4.368-1.296z" fill="#E5E5E5"/></svg>